<?xml version="1.0" encoding="UTF-8"?>
<svg version="1.1" xmlns="http://www.w3.org/2000/svg" width="300" height="168">
<path d="M0 0 C0.99 0.825 1.98 1.65 3 2.5 C0.00538325 5.49461675 -3.58930617 5.22479681 -7.625 5.625 C-10.38875 5.91375 -13.1525 6.2025 -16 6.5 C-16 12.44 -16 18.38 -16 24.5 C-20.81649984 23.29587504 -24.73766536 21.15641401 -29.125 18.875 C-37.47351435 14.88223227 -47.03378651 15.68148631 -55.66796875 18.49609375 C-58.03676348 19.51582616 -59.88979435 20.77900227 -62 22.25 C-68.70435282 26.28716002 -77.58960601 24.64531166 -85 23.5 C-85.66 22.84 -86.32 22.18 -87 21.5 C-87.33 22.49 -87.66 23.48 -88 24.5 C-86.79601562 24.54898438 -85.59203125 24.59796875 -84.3515625 24.6484375 C-82.77601802 24.72346343 -81.20049834 24.79901133 -79.625 24.875 C-78.8309375 24.9059375 -78.036875 24.936875 -77.21875 24.96875 C-71.2265625 25.2734375 -71.2265625 25.2734375 -69 27.5 C-69.40992188 28.15226562 -69.81984375 28.80453125 -70.2421875 29.4765625 C-70.78101563 30.35054687 -71.31984375 31.22453125 -71.875 32.125 C-72.40867188 32.98351562 -72.94234375 33.84203125 -73.4921875 34.7265625 C-77.81814305 42.683631 -78.43124167 51.5635999 -76.3125 60.3515625 C-74.71582514 64.649279 -72.72719433 67.97427337 -69.8125 71.5 C-66.26944367 75.93551384 -66.02555321 79.95495417 -66 85.5 C-65.98582031 86.37011719 -65.97164062 87.24023438 -65.95703125 88.13671875 C-65.9403823 90.25779552 -65.96579248 92.37913374 -66 94.5 C-68.56076097 95.17404284 -71.12326583 95.839414 -73.6875 96.5 C-74.40873047 96.69078125 -75.12996094 96.8815625 -75.87304688 97.078125 C-83.45781234 99.01760841 -83.45781234 99.01760841 -87 98.5 C-97.01689876 91.88204892 -104.24427674 77.90840872 -107 66.5 C-110.55090719 49.08447354 -108.77054069 31.6044039 -99.00390625 16.390625 C-93.81882137 9.04588091 -93.81882137 9.04588091 -90 6.5 C-88.33657163 8.16342837 -88.63951903 10.2825709 -88.4375 12.5625 C-88.31181641 13.94115234 -88.31181641 13.94115234 -88.18359375 15.34765625 C-88.12300781 16.05792969 -88.06242187 16.76820312 -88 17.5 C-89.49545715 5.66927233 -89.49545715 5.66927233 -86.30078125 1.03515625 C-83.65475157 -1.17351315 -81.02162243 -2.83829395 -78 -4.5 C-77.4323291 -4.81549805 -76.8646582 -5.13099609 -76.27978516 -5.45605469 C-51.11750653 -19.13105702 -22.95029321 -17.07080113 0 0 Z M-45 -1.5 C-45 0.48 -45 2.46 -45 4.5 C-44.67 4.5 -44.34 4.5 -44 4.5 C-44 2.52 -44 0.54 -44 -1.5 C-44.33 -1.5 -44.66 -1.5 -45 -1.5 Z M-51 -0.5 C-51 1.15 -51 2.8 -51 4.5 C-50.67 4.5 -50.34 4.5 -50 4.5 C-50 2.85 -50 1.2 -50 -0.5 C-50.33 -0.5 -50.66 -0.5 -51 -0.5 Z M-58 0.5 C-57 4.5 -57 4.5 -57 4.5 Z M-54 0.5 C-54 2.15 -54 3.8 -54 5.5 C-53.67 5.5 -53.34 5.5 -53 5.5 C-53 3.85 -53 2.2 -53 0.5 C-53.33 0.5 -53.66 0.5 -54 0.5 Z M-63 2.5 C-62 4.5 -62 4.5 -62 4.5 Z M-92 46.5 C-91 48.5 -91 48.5 -91 48.5 Z " fill="#7EC6FB" transform="translate(122,33.5)"/>
<path d="M0 0 C9.08059431 7.28689667 17.92000326 11.35472634 29.75 10.1875 C36.22909419 8.66919719 42.13501062 6.80973899 47.75 3.1875 C49.05150781 7.09202342 48.37254053 10.39210309 47.8125 14.375 C47.66264648 15.49938477 47.66264648 15.49938477 47.50976562 16.64648438 C47.26260359 18.49431482 47.00710389 20.3410266 46.75 22.1875 C47.46285156 22.30867188 48.17570312 22.42984375 48.91015625 22.5546875 C54.30234841 23.49813969 59.52235672 24.56112209 64.75 26.1875 C63.25092651 30.54149689 60.56565643 31.69723014 56.5625 33.6875 C40.11698354 41.61886716 22.6487908 44.29630392 5.0625 38.515625 C-4.33826594 34.74644998 -12.5435127 29.72452035 -20.25 23.1875 C-20.93320313 22.62546875 -21.61640625 22.0634375 -22.3203125 21.484375 C-27.09092882 17.50564236 -27.09092882 17.50564236 -28.25 15.1875 C-28.34774794 13.10604396 -28.37975741 11.02124453 -28.375 8.9375 C-28.37757813 7.81859375 -28.38015625 6.6996875 -28.3828125 5.546875 C-28.25608539 2.34142456 -27.8508965 -0.66494689 -27.25 -3.8125 C-24.6885681 -4.1766989 -22.12641581 -4.52912798 -19.5625 -4.875 C-18.84126953 -4.97876953 -18.12003906 -5.08253906 -17.37695312 -5.18945312 C-9.74059586 -6.20066025 -5.98629437 -4.99080072 0 0 Z M-6.25 11.1875 C-5.25 13.1875 -5.25 13.1875 -5.25 13.1875 Z M-2.25 14.1875 C-1.25 16.1875 -1.25 16.1875 -1.25 16.1875 Z M2.75 18.1875 C3.75 20.1875 3.75 20.1875 3.75 20.1875 Z M5.75 19.1875 C5.75 22.1875 5.75 22.1875 5.75 22.1875 Z M6.75 23.1875 C7.08 24.1775 7.41 25.1675 7.75 26.1875 C8.08 25.1975 8.41 24.2075 8.75 23.1875 C8.09 23.1875 7.43 23.1875 6.75 23.1875 Z M20.75 24.1875 C21.75 28.1875 21.75 28.1875 21.75 28.1875 Z M23.75 24.1875 C24.75 28.1875 24.75 28.1875 24.75 28.1875 Z M13.75 25.1875 C14.75 27.1875 14.75 27.1875 14.75 27.1875 Z M26.75 25.1875 C27.75 27.1875 27.75 27.1875 27.75 27.1875 Z M16.75 26.1875 C17.75 28.1875 17.75 28.1875 17.75 28.1875 Z " fill="#0E96F8" transform="translate(195.25,107.8125)"/>
<path d="M0 0 C13.05284449 10.12261409 19.6607008 24.9179153 21.75 41.0625 C23.09338747 59.07384305 16.95772966 75.78266286 5.83203125 89.71484375 C0.27929986 95.91746452 0.27929986 95.91746452 -4.875 96.25 C-6.26323319 95.87980448 -7.63771429 95.45652355 -9 95 C-10.44052734 94.63648438 -10.44052734 94.63648438 -11.91015625 94.265625 C-19.70595855 92.29404145 -19.70595855 92.29404145 -21 91 C-21.01492961 88.27086679 -20.94680176 85.59745595 -20.8125 82.875 C-20.79380859 82.12734375 -20.77511719 81.3796875 -20.75585938 80.609375 C-20.47679804 74.98898184 -19.07937858 71.70429053 -16 67 C-15.09946266 65.46107636 -14.20287969 63.9198228 -13.3125 62.375 C-12.89613281 61.66085938 -12.47976562 60.94671875 -12.05078125 60.2109375 C-8.83435939 53.44329894 -8.90782054 44.39992299 -10.68359375 37.24609375 C-12.92879516 31.29304934 -16.27984497 26.13381394 -20 21 C-13.97403427 19.9287172 -8.11090483 19.90054585 -2 20 C-1.90912109 18.21142578 -1.90912109 18.21142578 -1.81640625 16.38671875 C-1.73198851 14.82030075 -1.64734113 13.25389512 -1.5625 11.6875 C-1.52318359 10.90181641 -1.48386719 10.11613281 -1.44335938 9.30664062 C-1.40146484 8.54931641 -1.35957031 7.79199219 -1.31640625 7.01171875 C-1.27974854 6.31522217 -1.24309082 5.61872559 -1.20532227 4.90112305 C-1 3 -1 3 0 0 Z M2 45 C2 45.33 2 45.66 2 46 C3.65 46 5.3 46 7 46 C7 45.67 7 45.34 7 45 C5.35 45 3.7 45 2 45 Z M3 50 C7 51 7 51 7 51 Z M5 57 C3.02 57.99 3.02 57.99 1 59 C2.65 59 4.3 59 6 59 C5.67 58.34 5.34 57.68 5 57 Z M2 62 C3.485 62.99 3.485 62.99 5 64 C5 63.34 5 62.68 5 62 C4.01 62 3.02 62 2 62 Z " fill="#0E96F8" transform="translate(265,37)"/>
<path d="M0 0 C2.34605595 4.6921119 1.05051278 11.33309575 0.6875 16.4375 C0.62949219 17.26121094 0.57148438 18.08492187 0.51171875 18.93359375 C0 21 0 21 -3 23 C-5.88396694 23.27843177 -8.61387693 23.42837229 -11.5 23.4375 C-12.30646973 23.44064209 -13.11293945 23.44378418 -13.94384766 23.44702148 C-19.96014717 23.32717728 -24.5266808 22.1494207 -29.8359375 19.19140625 C-36.08744592 15.74969133 -44.08697777 16.11864085 -50.87890625 17.6484375 C-58.91945887 20.32480921 -66.15446866 24.83596214 -72 31 C-73.485 30.505 -73.485 30.505 -75 30 C-75 24.39 -75 18.78 -75 13 C-80.65840766 11.83731349 -86.2722863 10.74709309 -92 10 C-91.72444179 6.84558366 -90.90856206 5.91166917 -88.5859375 3.66796875 C-87.52771017 2.82573369 -86.45639908 1.99976905 -85.375 1.1875 C-84.79886963 0.75171631 -84.22273926 0.31593262 -83.62915039 -0.13305664 C-58.26478343 -18.63336399 -25.35278086 -19.18588822 0 0 Z M-53 -2 C-52 1 -52 1 -52 1 Z M-49 0 C-48 2 -48 2 -48 2 Z M-36 0 C-35 4 -35 4 -35 4 Z M-32 1 C-31 3 -31 3 -31 3 Z M-28 1 C-27 4 -27 4 -27 4 Z M-25 2 C-24.67 3.32 -24.34 4.64 -24 6 C-23.67 5.34 -23.34 4.68 -23 4 C-23.66 3.34 -24.32 2.68 -25 2 Z " fill="#0E96F9" transform="translate(262,33)"/>
<path d="M0 0 C3.02734375 0.62109375 3.02734375 0.62109375 6.0625 1.5625 C7.35477297 1.93083531 8.64774943 2.29671111 9.94140625 2.66015625 C10.97136719 2.95792969 12.00132812 3.25570312 13.0625 3.5625 C13.26826948 6.72818435 13.39090715 9.89212813 13.5 13.0625 C13.58797852 14.3928125 13.58797852 14.3928125 13.67773438 15.75 C13.80823111 20.82073023 13.36950919 23.841645 9.98828125 27.734375 C8.69659601 29.02752974 7.38766819 30.30367944 6.0625 31.5625 C4.86284267 32.84248066 3.67005706 34.12893793 2.484375 35.421875 C1.2615552 36.71982358 0.03756871 38.01667384 -1.1875 39.3125 C-9.02215132 47.63572646 -16.78804472 56.0119064 -24.375 64.5625 C-27.94611807 68.53472191 -31.62367366 72.3863054 -35.375 76.1875 C-35.89570068 76.72117187 -36.41640137 77.25484375 -36.95288086 77.8046875 C-38.24224427 79.09723977 -39.58583465 80.3352469 -40.9375 81.5625 C-41.5975 81.5625 -42.2575 81.5625 -42.9375 81.5625 C-43.2675 74.9625 -43.5975 68.3625 -43.9375 61.5625 C-46.4434375 61.624375 -46.4434375 61.624375 -49 61.6875 C-53.74400571 61.69975841 -57.48491627 61.14564088 -61.9375 59.5625 C-60.90496094 58.54349609 -60.90496094 58.54349609 -59.8515625 57.50390625 C-56.59212988 54.24332836 -53.45205498 50.87555303 -50.3125 47.5 C-49.39053833 46.51036255 -49.39053833 46.51036255 -48.44995117 45.50073242 C-42.91336815 39.55078948 -37.41835163 33.56378858 -31.9375 27.5625 C-26.78916544 21.92530281 -26.78916544 21.92530281 -25.26831055 20.30126953 C-22.58935952 17.4307295 -20.05505073 14.49455371 -17.58984375 11.4375 C-7.67342063 -0.52859384 -7.67342063 -0.52859384 0 0 Z M-11.9375 25.5625 C-10.9375 27.5625 -10.9375 27.5625 -10.9375 27.5625 Z M-12.9375 29.5625 C-11.9375 31.5625 -11.9375 31.5625 -11.9375 31.5625 Z M-19.9375 31.5625 C-19.6075 32.2225 -19.2775 32.8825 -18.9375 33.5625 C-18.6075 32.9025 -18.2775 32.2425 -17.9375 31.5625 C-18.5975 31.5625 -19.2575 31.5625 -19.9375 31.5625 Z M-23.9375 35.5625 C-22.9375 37.5625 -22.9375 37.5625 -22.9375 37.5625 Z M-29.9375 41.5625 C-28.9375 43.5625 -28.9375 43.5625 -28.9375 43.5625 Z M-30.9375 45.5625 C-30.9375 46.5525 -30.9375 47.5425 -30.9375 48.5625 C-30.2775 48.2325 -29.6175 47.9025 -28.9375 47.5625 C-29.5975 46.9025 -30.2575 46.2425 -30.9375 45.5625 Z " fill="#0D96F9" transform="translate(172.9375,43.4375)"/>
<path d="M0 0 C2.69812563 2.69812563 1.61873301 9.74857527 1.64648438 13.3527832 C1.53597759 17.31792266 1.39616654 20.23550565 -0.4453125 23.7890625 C-2.82031828 25.98345948 -5.16538067 27.43746665 -8 29 C-9.22532315 29.7678962 -10.44780497 30.54033811 -11.66796875 31.31640625 C-27.20655004 40.91020851 -43.29818744 44.69080987 -61.28051758 40.86523438 C-71.03096033 38.51285073 -80.44804922 34.74913079 -88 28 C-88 27.34 -88 26.68 -88 26 C-81.73 24.68 -75.46 23.36 -69 22 C-69.33 19.36 -69.66 16.72 -70 14 C-70.05915294 12.3342531 -70.08854052 10.66659344 -70.0625 9 C-70.05347656 8.236875 -70.04445313 7.47375 -70.03515625 6.6875 C-70.02355469 6.130625 -70.01195313 5.57375 -70 5 C-67.13444648 6.12885442 -64.31334952 7.30654039 -61.5 8.5625 C-53.79715069 11.72617025 -44.79220521 12.65656476 -36.8359375 9.90625 C-32.77200657 7.93204066 -29.08583416 5.94081457 -25.66015625 2.97265625 C-17.65331477 -3.93923254 -9.73662519 -2.06503185 0 0 Z M-52 22 C-51 25 -51 25 -51 25 Z M-38 22 C-37 25 -37 25 -37 25 Z M-48 23 C-48 24.65 -48 26.3 -48 28 C-47.67 28 -47.34 28 -47 28 C-47 26.35 -47 24.7 -47 23 C-47.33 23 -47.66 23 -48 23 Z " fill="#7FC6FA" transform="translate(127,107)"/>
<path d="M0 0 C5.44785722 0.88326206 8.34896473 4.83987614 12.05078125 8.72265625 C12.81777344 9.49158203 13.58476562 10.26050781 14.375 11.05273438 C17.98157806 14.74488151 20.6011894 17.58809141 22.30078125 22.53515625 C16.15033012 29.70346373 9.72584132 36.61423768 3.30078125 43.53515625 C-2.46673832 38.9211406 -7.32100381 33.71665834 -12.24609375 28.2421875 C-14.47574485 25.66458788 -14.47574485 25.66458788 -16.33422852 24.14404297 C-18.13030409 22.02704457 -18.04748735 20.83249647 -17.9921875 18.0859375 C-17.98251953 17.23837891 -17.97285156 16.39082031 -17.96289062 15.51757812 C-17.93775391 14.63650391 -17.91261719 13.75542969 -17.88671875 12.84765625 C-17.87318359 11.95498047 -17.85964844 11.06230469 -17.84570312 10.14257812 C-17.81035954 7.93949459 -17.76102368 5.73763043 -17.69921875 3.53515625 C-11.72699185 1.76720461 -6.04961784 1.19941772 0 0 Z M-3.69921875 17.53515625 C-2.69921875 19.53515625 -2.69921875 19.53515625 -2.69921875 19.53515625 Z M3.30078125 18.53515625 C4.30078125 20.53515625 4.30078125 20.53515625 4.30078125 20.53515625 Z M6.30078125 21.53515625 C6.30078125 24.53515625 6.30078125 24.53515625 6.30078125 24.53515625 Z M1.30078125 22.53515625 C2.30078125 24.53515625 2.30078125 24.53515625 2.30078125 24.53515625 Z M5.30078125 26.53515625 C5.63078125 27.19515625 5.96078125 27.85515625 6.30078125 28.53515625 C6.63078125 27.87515625 6.96078125 27.21515625 7.30078125 26.53515625 C6.64078125 26.53515625 5.98078125 26.53515625 5.30078125 26.53515625 Z " fill="#7DC5F9" transform="translate(125.69921875,38.46484375)"/>
<path d="M0 0 C4.62409693 0.835628 6.77676317 3.6483501 9.75 7.0625 C10.25660156 7.63033203 10.76320312 8.19816406 11.28515625 8.78320312 C12.53113136 10.1819865 13.76660973 11.59010733 15 13 C14.67 13.66 14.34 14.32 14 15 C11.12817413 15.47618812 8.32879853 15.84167597 5.4375 16.125 C4.22803711 16.25455078 4.22803711 16.25455078 2.99414062 16.38671875 C0.99695936 16.59943628 -1.00142737 16.80077855 -3 17 C-3.04898438 18.14339844 -3.09796875 19.28679687 -3.1484375 20.46484375 C-3.22345189 21.95575473 -3.29900028 23.44663892 -3.375 24.9375 C-3.42140625 26.06961914 -3.42140625 26.06961914 -3.46875 27.22460938 C-3.5726315 29.15507395 -3.77895614 31.07942081 -4 33 C-4.99 33.495 -4.99 33.495 -6 34 C-7.99170383 32.2790132 -9.97585874 30.55061848 -11.94921875 28.80859375 C-13.47507067 27.46293768 -15.0151644 26.13339624 -16.5625 24.8125 C-17.036875 24.214375 -17.51125 23.61625 -18 23 C-17.40216812 18.41623456 -14.33507883 15.81291479 -11.25 12.625 C-10.19127936 11.51438128 -9.13397569 10.40241 -8.078125 9.2890625 C-7.30758789 8.47743652 -7.30758789 8.47743652 -6.52148438 7.64941406 C-4.24422303 5.18067567 -2.12270769 2.60228239 0 0 Z " fill="#7AC4F8" transform="translate(170,86)"/>
<path d="M0 0 C2.82193476 4.40927306 3.57667837 7.97167358 2.6328125 13.1328125 C1.5024338 16.46812743 -0.15067492 18.01786081 -3 20 C-7.39049631 20.7840172 -9.2009338 20.55587214 -12.875 18 C-15.50099734 14.29270964 -16.17349137 11.50164458 -16 7 C-15.07561359 3.53355095 -13.86039387 1.20030298 -11 -1 C-7.10111774 -2.81019533 -3.79671591 -1.65674876 0 0 Z M-8 3 C-9.25949049 4.03406673 -9.25949049 4.03406673 -9.09765625 6.28515625 C-9.08605469 7.20167969 -9.07445312 8.11820313 -9.0625 9.0625 C-9.05347656 9.98160156 -9.04445312 10.90070313 -9.03515625 11.84765625 C-9.02355469 12.55792969 -9.01195312 13.26820312 -9 14 C-7.05396726 14.59070014 -7.05396726 14.59070014 -5 15 C-3.74050951 13.96593327 -3.74050951 13.96593327 -3.90234375 11.71484375 C-3.91394531 10.79832031 -3.92554688 9.88179687 -3.9375 8.9375 C-3.95103516 7.55884766 -3.95103516 7.55884766 -3.96484375 6.15234375 C-3.97644531 5.44207031 -3.98804688 4.73179688 -4 4 C-5.94603274 3.40929986 -5.94603274 3.40929986 -8 3 Z " fill="#1691EB" transform="translate(208,73)"/>
<path d="M0 0 C10.03296703 -0.48351648 10.03296703 -0.48351648 14.125 1.5625 C16.6245752 4.81194776 16.93073457 6.91333972 17 11 C16.25 14.8125 16.25 14.8125 15 18 C10.25368713 21.16420858 5.63243123 20.12112755 0 20 C0 13.4 0 6.8 0 0 Z M6 5 C6 8.63 6 12.26 6 16 C7.32 15.67 8.64 15.34 10 15 C11.19988045 9.71800407 11.19988045 9.71800407 9 5 C8.01 5 7.02 5 6 5 Z " fill="#7BBFF0" transform="translate(60,72)"/>
<path d="M0 0 C1.94070481 3.08748493 2.00133221 4.96136584 1.875 8.625 C1 12 1 12 -0.8125 13.9375 C-3 15 -3 15 -7 15 C-7.33 16.32 -7.66 17.64 -8 19 C-9.65 19 -11.3 19 -13 19 C-13 12.4 -13 5.8 -13 -1 C-3.4 -2.2 -3.4 -2.2 0 0 Z M-7 3 C-8.29633621 4.06645115 -8.29633621 4.06645115 -8.0625 6.5625 C-8.041875 7.366875 -8.02125 8.17125 -8 9 C-7.01 9.33 -6.02 9.66 -5 10 C-3.99782936 6.41672247 -3.99782936 6.41672247 -5 3 C-5.66 3 -6.32 3 -7 3 Z " fill="#248FDE" transform="translate(226,78)"/>
<path d="M0 0 C1.875 0.38671875 1.875 0.38671875 3.875 2.07421875 C5.00989245 4.69865755 5.11090819 6.55582053 4.875 9.38671875 C2.235 9.38671875 -0.405 9.38671875 -3.125 9.38671875 C-3.125 10.04671875 -3.125 10.70671875 -3.125 11.38671875 C-0.815 11.38671875 1.495 11.38671875 3.875 11.38671875 C3.875 12.70671875 3.875 14.02671875 3.875 15.38671875 C-2.36659797 16.73294576 -2.36659797 16.73294576 -6 15.07421875 C-8.125 13.38671875 -8.125 13.38671875 -9.125 11.38671875 C-9.38452656 7.8831102 -9.46792714 5.22260365 -8.125 1.94921875 C-5.41429777 -0.16851736 -3.37598905 -0.17997 0 0 Z M-3.125 4.38671875 C-3.125 5.04671875 -3.125 5.70671875 -3.125 6.38671875 C-2.465 6.38671875 -1.805 6.38671875 -1.125 6.38671875 C-1.125 5.72671875 -1.125 5.06671875 -1.125 4.38671875 C-1.785 4.38671875 -2.445 4.38671875 -3.125 4.38671875 Z " fill="#75BAEB" transform="translate(87.125,76.61328125)"/>
<path d="M0 0 C4.75240555 1.14713237 7.41857545 2.13321215 10.6875 5.875 C11.31011719 6.57367188 11.93273437 7.27234375 12.57421875 7.9921875 C14 10 14 10 14 13 C10.7 13 7.4 13 4 13 C3.67 11.68 3.34 10.36 3 9 C2.67 9.99 2.34 10.98 2 12 C0.68 12 -0.64 12 -2 12 C-2 11.34 -2 10.68 -2 10 C-2.598125 10.66 -3.19625 11.32 -3.8125 12 C-6 14 -6 14 -9 14 C-8.33333333 12.66666667 -7.66666667 11.33333333 -7 10 C-6.71125 9.34 -6.4225 8.68 -6.125 8 C-4.75940257 5.57227124 -2.99380118 3.92948501 -1 2 C-0.67 1.34 -0.34 0.68 0 0 Z " fill="#7FC8FC" transform="translate(170,88)"/>
<path d="M0 0 C0.66 0.33 1.32 0.66 2 1 C1.96519531 2.23363281 1.96519531 2.23363281 1.9296875 3.4921875 C1.81459123 10.61171361 2.25339253 17.09154367 4 24 C3.01 24.66 2.02 25.32 1 26 C1 25.34 1 24.68 1 24 C-0.65 24.33 -2.3 24.66 -4 25 C-4.144375 24.2575 -4.28875 23.515 -4.4375 22.75 C-4.90257002 20.07329973 -4.90257002 20.07329973 -5.8125 17.9375 C-5.874375 17.298125 -5.93625 16.65875 -6 16 C-4.0625 13.75 -4.0625 13.75 -2 12 C-2.99 12.66 -3.98 13.32 -5 14 C-6.28317892 10.15046324 -6.06643637 7.05261865 -6 3 C-4.35 3 -2.7 3 -1 3 C-0.67 2.01 -0.34 1.02 0 0 Z M0 3 C1 5 1 5 1 5 Z " fill="#6EB7F0" transform="translate(30,77)"/>
<path d="M0 0 C1.98 0 3.96 0 6 0 C6.66 1.65 7.32 3.3 8 5 C8.66 3.35 9.32 1.7 10 0 C11.98 0 13.96 0 16 0 C14.35 4.95 12.7 9.9 11 15 C9.02 15 7.04 15 5 15 C2.72623708 10.03906272 1.21376034 5.32187227 0 0 Z " fill="#78BBEB" transform="translate(92,77)"/>
<path d="M0 0 C6.1112924 1.0388092 12.07704464 2.15730278 18 4 C16.94117053 7.30062704 15.87523882 8.07606258 12.84765625 9.921875 C11.59204087 10.54372877 10.33001252 11.15276963 9.0625 11.75 C8.42892578 12.06582031 7.79535156 12.38164062 7.14257812 12.70703125 C4.24861408 14.11293177 2.25598209 15 -1 15 C-1 14.34 -1 13.68 -1 13 C0.32 13 1.64 13 3 13 C2.67 12.01 2.34 11.02 2 10 C1.01 10 0.02 10 -1 10 C-0.75 8.125 -0.75 8.125 0 6 C2.0625 4.75 2.0625 4.75 4 4 C2.68 2.68 1.36 1.36 0 0 Z " fill="#0F95F4" transform="translate(242,130)"/>
<path d="M0 0 C0.144375 0.763125 0.28875 1.52625 0.4375 2.3125 C0.9632594 5.08172908 0.9632594 5.08172908 2 8 C-0.06230268 8.1690907 -2.1248523 8.33517133 -4.1875 8.5 C-5.33605469 8.5928125 -6.48460938 8.685625 -7.66796875 8.78125 C-10.46427556 8.96482935 -13.20019613 9.03764442 -16 9 C-17.32 9 -18.64 9 -20 9 C-20.66 8.34 -21.32 7.68 -22 7 C-21.625 4.375 -21.625 4.375 -21 2 C-13.90961228 0.49025965 -7.24997422 -0.28307925 0 0 Z M-3 1 C-3 2.98 -3 4.96 -3 7 C-2.67 7 -2.34 7 -2 7 C-2 5.02 -2 3.04 -2 1 C-2.33 1 -2.66 1 -3 1 Z M-9 2 C-9 3.65 -9 5.3 -9 7 C-8.67 7 -8.34 7 -8 7 C-8 5.35 -8 3.7 -8 2 C-8.33 2 -8.66 2 -9 2 Z M-16 3 C-15 7 -15 7 -15 7 Z M-12 3 C-12 4.65 -12 6.3 -12 8 C-11.67 8 -11.34 8 -11 8 C-11 6.35 -11 4.7 -11 3 C-11.33 3 -11.66 3 -12 3 Z M-21 5 C-20 7 -20 7 -20 7 Z " fill="#6DB7EC" transform="translate(80,31)"/>
<path d="M0 0 C2.01822917 0.06510417 4.03645833 0.13020833 6.0546875 0.1953125 C6.0546875 1.5153125 6.0546875 2.8353125 6.0546875 4.1953125 C5.0646875 4.5253125 4.0746875 4.8553125 3.0546875 5.1953125 C3.7146875 5.5871875 4.3746875 5.9790625 5.0546875 6.3828125 C7.0546875 8.1953125 7.0546875 8.1953125 7.5546875 10.6953125 C7.0546875 13.1953125 7.0546875 13.1953125 5.4296875 15.0078125 C2.48266543 16.48132353 0.30763864 16.41710462 -2.9453125 16.1953125 C-3.2753125 14.5453125 -3.6053125 12.8953125 -3.9453125 11.1953125 C-2.9553125 10.8653125 -1.9653125 10.5353125 -0.9453125 10.1953125 C-1.9353125 9.5353125 -2.9253125 8.8753125 -3.9453125 8.1953125 C-4.2578125 5.1953125 -4.2578125 5.1953125 -3.9453125 2.1953125 C-1.9453125 0.1953125 -1.9453125 0.1953125 0 0 Z " fill="#0B94F9" transform="translate(232.9453125,76.8046875)"/>
<path d="M0 0 C0.99 0.33 1.98 0.66 3 1 C3 2.65 3 4.3 3 6 C2.34 6 1.68 6 1 6 C-0.95052457 8.68197129 -2.67330748 11.32846537 -4.125 14.3125 C-5 16 -5 16 -7 17 C-7.268125 17.61875 -7.53625 18.2375 -7.8125 18.875 C-9.37525586 21.67151049 -11.17049195 22.58524598 -14 24 C-14.66 24 -15.32 24 -16 24 C-16.33 21.69 -16.66 19.38 -17 17 C-16.38125 16.79375 -15.7625 16.5875 -15.125 16.375 C-12.15346355 14.45224112 -11.86975341 12.33405473 -11 9 C-10.01 9.66 -9.02 10.32 -8 11 C-7.67 9.68 -7.34 8.36 -7 7 C-6.1028125 6.938125 -6.1028125 6.938125 -5.1875 6.875 C-2.64899168 6.12260099 -2.64899168 6.12260099 -1.25 2.9375 C-0.8375 1.968125 -0.425 0.99875 0 0 Z M-6 8 C-5.67 8.66 -5.34 9.32 -5 10 C-4.67 9.34 -4.34 8.68 -4 8 C-4.66 8 -5.32 8 -6 8 Z M-10 12 C-9 14 -9 14 -9 14 Z M-16 18 C-15 20 -15 20 -15 20 Z " fill="#1790EF" transform="translate(159,67)"/>
<path d="M0 0 C2.38564077 0.57584432 4.66682784 1.22227595 7 2 C8.72536537 2.37224418 10.45500309 2.7250006 12.1875 3.0625 C13.08855469 3.23910156 13.98960937 3.41570312 14.91796875 3.59765625 C15.60503906 3.73042969 16.29210937 3.86320313 17 4 C17.33 4.99 17.66 5.98 18 7 C18.33 6.34 18.66 5.68 19 5 C19.99 5 20.98 5 22 5 C22.33 6.32 22.66 7.64 23 9 C22.01 9.33 21.02 9.66 20 10 C19.525625 10.53625 19.05125 11.0725 18.5625 11.625 C18.046875 12.07875 17.53125 12.5325 17 13 C14.8125 12.6875 14.8125 12.6875 13 12 C13 10.68 13 9.36 13 8 C11.35 8.33 9.7 8.66 8 9 C8 8.34 8 7.68 8 7 C6.68 7.33 5.36 7.66 4 8 C4 7.34 4 6.68 4 6 C2.68 5.34 1.36 4.68 0 4 C0 2.68 0 1.36 0 0 Z M2 1 C2 4 2 4 2 4 Z " fill="#1D91E9" transform="translate(199,126)"/>
<path d="M0 0 C5.28 0 10.56 0 16 0 C17 5 17 5 17 7 C14.1875 7.6875 14.1875 7.6875 11 8 C9.125 6.6875 9.125 6.6875 8 5 C8 4.34 8 3.68 8 3 C7.34 3 6.68 3 6 3 C6 4.65 6 6.3 6 8 C5.01 7.67 4.02 7.34 3 7 C2.67 6.01 2.34 5.02 2 4 C1.01 5.32 0.02 6.64 -1 8 C-1.625 6.25 -1.625 6.25 -2 4 C-1.34 2.68 -0.68 1.36 0 0 Z M15 1 C16 4 16 4 16 4 Z " fill="#6FB5EA" transform="translate(74,128)"/>
<path d="M0 0 C0.33 0.99 0.66 1.98 1 3 C-0.40445835 5.2636564 -2.1967913 7.0208685 -4 9 C-2.68 8.67 -1.36 8.34 0 8 C-0.33 9.32 -0.66 10.64 -1 12 C2.29075996 11.62095792 2.29075996 11.62095792 5 10 C5.66 9.67 6.32 9.34 7 9 C8.20272819 11.40545638 8.10071472 12.94996953 8.0625 15.625 C8.05347656 16.44226563 8.04445312 17.25953125 8.03515625 18.1015625 C8.02355469 18.72804688 8.01195312 19.35453125 8 20 C7.34 20.33 6.68 20.66 6 21 C4.00829617 19.2790132 2.02414126 17.55061848 0.05078125 15.80859375 C-1.47507067 14.46293768 -3.0151644 13.13339624 -4.5625 11.8125 C-6 10 -6 10 -6.0625 8.125 C-4.49163247 4.98326494 -2.32912967 2.62773604 0 0 Z " fill="#75B9E9" transform="translate(158,99)"/>
<path d="M0 0 C1.65 0.33 3.3 0.66 5 1 C5.33 2.98 5.66 4.96 6 7 C7.32 7 8.64 7 10 7 C10.6875 9.3125 10.6875 9.3125 11 12 C9.5625 13.8125 9.5625 13.8125 8 15 C5.525 14.01 5.525 14.01 3 13 C3 12.34 3 11.68 3 11 C2.01 11 1.02 11 0 11 C-2.1875 8 -2.1875 8 -4 5 C-3.67 4.34 -3.34 3.68 -3 3 C-2.34 3.33 -1.68 3.66 -1 4 C-0.67 2.68 -0.34 1.36 0 0 Z M1 7 C2 9 2 9 2 9 Z M8 8 C9 10 9 10 9 10 Z M6 12 C7 14 7 14 7 14 Z " fill="#71B9EF" transform="translate(121,49)"/>
<path d="M0 0 C0 3.41099168 -0.49145406 6.63088314 -1 10 C-1.66 10 -2.32 10 -3 10 C-2.67 11.98 -2.34 13.96 -2 16 C-7.75 16.125 -7.75 16.125 -10 15 C-9.34 11.7 -8.68 8.4 -8 5 C-7.34 5 -6.68 5 -6 5 C-5.67 3.68 -5.34 2.36 -5 1 C-3.35 0.67 -1.7 0.34 0 0 Z M-2 4 C-3.98 4.99 -3.98 4.99 -6 6 C-4.35 6 -2.7 6 -1 6 C-1.33 5.34 -1.66 4.68 -2 4 Z " fill="#1A91EB" transform="translate(272,90)"/>
<path d="M0 0 C2.31 0 4.62 0 7 0 C6.01 0.66 5.02 1.32 4 2 C4.66 2.94875 5.32 3.8975 6 4.875 C8 8 8 8 8 10 C8.66 10 9.32 10 10 10 C10 11.32 10 12.64 10 14 C10.66 14 11.32 14 12 14 C12 22.33333333 12 30.66666667 12 39 C12.33 39.99 12.66 40.98 13 42 C10.03 42.495 10.03 42.495 7 43 C7.2165625 42.35675781 7.433125 41.71351562 7.65625 41.05078125 C10.76377492 30.96571194 11.75941999 21.17624531 7.2890625 11.3671875 C5.12418724 7.39168929 2.65459975 3.66334765 0 0 Z " fill="#288AD7" transform="translate(245,58)"/>
<path d="M0 0 C0.66 0 1.32 0 2 0 C2.66 3.96 3.32 7.92 4 12 C6.97 12.495 6.97 12.495 10 13 C10 13.66 10 14.32 10 15 C6.98978265 15.58058699 4.07078552 16.01636298 1 16 C-1.45778691 14.23346566 -1.83605592 12.86940044 -2.38671875 9.94921875 C-2.65686076 7.9740246 -2.83444204 5.98669554 -3 4 C-2.34 3.67 -1.68 3.34 -1 3 C-0.67 2.01 -0.34 1.02 0 0 Z " fill="#1292F0" transform="translate(195,76)"/>
<path d="M0 0 C2.82304338 1.96385626 3.07448 3.31919999 3.875 6.75 C4.29357191 11.28731951 3.21301889 14.04818056 1 18 C-2.6441774 20.4294516 -4.71241272 20.16179575 -9 20 C-6 18 -6 18 -2 18 C-2 17.34 -2 16.68 -2 16 C-2.969375 16.020625 -3.93875 16.04125 -4.9375 16.0625 C-8 16 -8 16 -9 15 C-9.07244053 12.98035801 -9.08377188 10.95832876 -9.0625 8.9375 C-9.05347656 7.83277344 -9.04445312 6.72804688 -9.03515625 5.58984375 C-9.02355469 4.73519531 -9.01195312 3.88054687 -9 3 C-8.01 3.495 -8.01 3.495 -7 4 C-7 7.3 -7 10.6 -7 14 C-6.01 14 -5.02 14 -4 14 C-3.67 11.03 -3.34 8.06 -3 5 C-2.67 5 -2.34 5 -2 5 C-1.95101562 5.71027344 -1.90203125 6.42054687 -1.8515625 7.15234375 C-1.77679688 8.07144531 -1.70203125 8.99054688 -1.625 9.9375 C-1.55539063 10.85402344 -1.48578125 11.77054688 -1.4140625 12.71484375 C-1.27742187 13.46894531 -1.14078125 14.22304687 -1 15 C-0.34 15.33 0.32 15.66 1 16 C1.02712153 14.083412 1.04645097 12.1667127 1.0625 10.25 C1.07410156 9.18265625 1.08570313 8.1153125 1.09765625 7.015625 C1.01510087 4.46631499 0.74617558 2.42066409 0 0 Z " fill="#258AD0" transform="translate(207,73)"/>
<path d="M0 0 C1.32 0 2.64 0 4 0 C5.78971369 3.80314159 6.54829905 6.79637393 6 11 C4.4375 12.9375 4.4375 12.9375 2 14 C-1.75 13.6875 -1.75 13.6875 -5 13 C-5.33 13.99 -5.66 14.98 -6 16 C-6 14.35 -6 12.7 -6 11 C-4.68 11 -3.36 11 -2 11 C0.20067421 10.06716704 0.20067421 10.06716704 2 9 C1.51515724 4.35413108 1.51515724 4.35413108 0 0 Z " fill="#1194F4" transform="translate(221,79)"/>
<path d="M0 0 C0.99 0.66 1.98 1.32 3 2 C3 2.99 3 3.98 3 5 C3.66 5.33 4.32 5.66 5 6 C5 6.66 5 7.32 5 8 C5.99 8.66 6.98 9.32 8 10 C6.02 12.31 4.04 14.62 2 17 C1.34 16.67 0.68 16.34 0 16 C0 15.34 0 14.68 0 14 C0.66 13.67 1.32 13.34 2 13 C2 12.01 2 11.02 2 10 C-0.31 9.34 -2.62 8.68 -5 8 C-3.38731308 5.28775382 -1.75098126 2.62647188 0 0 Z M-2 6 C-1.67 6.66 -1.34 7.32 -1 8 C-0.67 7.34 -0.34 6.68 0 6 C-0.66 6 -1.32 6 -2 6 Z " fill="#73BBEE" transform="translate(133,59)"/>
<path d="M0 0 C4.13937592 3.30015998 7.58662205 6.17324411 10 11 C9.01 11 8.02 11 7 11 C7 10.34 7 9.68 7 9 C6.34 9 5.68 9 5 9 C4.67 9.66 4.34 10.32 4 11 C2 11.6875 2 11.6875 0 12 C-1.88059033 10.11940967 -1.12361218 7.50109962 -1.1328125 5.0078125 C-1 3 -1 3 0 0 Z " fill="#1593EC" transform="translate(265,37)"/>
<path d="M0 0 C2.79256219 0.11361602 5.58344118 0.2403589 8.375 0.375 C9.1690625 0.4059375 9.963125 0.436875 10.78125 0.46875 C16.7734375 0.7734375 16.7734375 0.7734375 19 3 C16.03 7.95 16.03 7.95 13 13 C11.92650209 8.70600835 12.20317184 7.80504787 14 4 C8.91696314 3.88679144 8.91696314 3.88679144 4 5 C1.8125 3.6875 1.8125 3.6875 0 2 C0 1.34 0 0.68 0 0 Z " fill="#88BFE7" transform="translate(34,58)"/>
<path d="M0 0 C0.763125 0.309375 1.52625 0.61875 2.3125 0.9375 C7.17314841 2.33802581 11.96858173 2.65979734 17 3 C17.7795458 5.80747455 18.1710149 8.42029808 18.31640625 11.328125 C18.35830078 12.12734375 18.40019531 12.9265625 18.44335938 13.75 C18.48267578 14.575 18.52199219 15.4 18.5625 16.25 C18.60568359 17.09046875 18.64886719 17.9309375 18.69335938 18.796875 C18.79908543 20.86440671 18.90001295 22.93218281 19 25 C18.34 25 17.68 25 17 25 C16.505 15.1 16.505 15.1 16 5 C14.329375 5.04125 12.65875 5.0825 10.9375 5.125 C6.19349429 5.13725841 2.45258373 4.58314088 -2 3 C-1.34 2.01 -0.68 1.02 0 0 Z " fill="#3495DE" transform="translate(113,100)"/>
<path d="M0 0 C1.24546405 2.49092811 0.7767578 3.41080733 0 6 C-0.66 6 -1.32 6 -2 6 C-2 6.66 -2 7.32 -2 8 C-3.65 8.66 -5.3 9.32 -7 10 C-7 10.66 -7 11.32 -7 12 C-8.5390625 13.55078125 -8.5390625 13.55078125 -10.625 15.3125 C-11.71167969 16.23675781 -11.71167969 16.23675781 -12.8203125 17.1796875 C-13.53960937 17.78039062 -14.25890625 18.38109375 -15 19 C-15.92425781 19.77730469 -15.92425781 19.77730469 -16.8671875 20.5703125 C-18.23975123 21.71958835 -19.6190983 22.8607561 -21 24 C-19.45872649 20.28731906 -17.19156766 18.01884302 -14.3125 15.25 C-10.47937109 11.50007939 -6.85283388 7.67351667 -3.375 3.59375 C-2.30150314 2.34946955 -1.16203041 1.16203041 0 0 Z " fill="#2590DE" transform="translate(165,45)"/>
<path d="M0 0 C2.912575 0.08566397 4.56798024 0.57910955 6.66796875 2.625 C8.16091772 4.38391375 9.60436262 6.16313019 11 8 C10 9 10 9 7.93359375 9.09765625 C7.10988281 9.08605469 6.28617188 9.07445313 5.4375 9.0625 C4.61121094 9.05347656 3.78492188 9.04445313 2.93359375 9.03515625 C2.29550781 9.02355469 1.65742188 9.01195313 1 9 C1.20625 7.88625 1.4125 6.7725 1.625 5.625 C1.74875 4.42875 1.8725 3.2325 2 2 C1.34 1.34 0.68 0.68 0 0 Z " fill="#7CC5F9" transform="translate(174,92)"/>
<path d="M0 0 C1.32 0.33 2.64 0.66 4 1 C5.24377393 3.48754786 5.13306235 5.22655301 5.125 8 C5.12757813 8.886875 5.13015625 9.77375 5.1328125 10.6875 C5 13 5 13 4 15 C3.01 14.67 2.02 14.34 1 14 C0.67 9.38 0.34 4.76 0 0 Z " fill="#0A95F9" transform="translate(204,74)"/>
<path d="M0 0 C2.3125 -0.25 2.3125 -0.25 5 0 C6.625 2 6.625 2 8 4 C8.99 4 9.98 4 11 4 C9.95125002 6.62187494 9.35068687 7.79371361 6.875 9.25 C6.25625 9.4975 5.6375 9.745 5 10 C5 9.34 5 8.68 5 8 C3.68 7.67 2.36 7.34 1 7 C0.67 4.69 0.34 2.38 0 0 Z " fill="#1E98F3" transform="translate(219,30)"/>
<path d="M0 0 C0.66 0.33 1.32 0.66 2 1 C1.34 6.94 0.68 12.88 0 19 C-0.33 19 -0.66 19 -1 19 C-1 14.05 -1 9.1 -1 4 C-2.0725 4.515625 -3.145 5.03125 -4.25 5.5625 C-7.25254899 7.00603317 -8.83246499 7.05818094 -12 6 C-11.38511719 5.73445313 -10.77023438 5.46890625 -10.13671875 5.1953125 C-9.32847656 4.84210938 -8.52023438 4.48890625 -7.6875 4.125 C-6.88699219 3.77695313 -6.08648437 3.42890625 -5.26171875 3.0703125 C-2.8038166 1.97428106 -2.8038166 1.97428106 0 0 Z " fill="#2490E0" transform="translate(242,111)"/>
<path d="M0 0 C2.5 1.1875 2.5 1.1875 5 3 C5.5625 5.5 5.5625 5.5 5 8 C2.62130509 10.65315971 1.32875347 10.98103345 -2.25 11.1875 C-3.1575 11.125625 -4.065 11.06375 -5 11 C-5.33 9.35 -5.66 7.7 -6 6 C-3 4 -3 4 0 4 C-0.33 5.32 -0.66 6.64 -1 8 C-1.99 7.67 -2.98 7.34 -4 7 C-4 7.66 -4 8.32 -4 9 C-2.02 9 -0.04 9 2 9 C2 6.69 2 4.38 2 2 C1.34 2 0.68 2 0 2 C0 1.34 0 0.68 0 0 Z " fill="#1E8BD6" transform="translate(235,82)"/>
<path d="M0 0 C0 0.66 0 1.32 0 2 C0.66 2.33 1.32 2.66 2 3 C-2.29 7.62 -6.58 12.24 -11 17 C-11.33 15.68 -11.66 14.36 -12 13 C-11.34 13 -10.68 13 -10 13 C-10 12.34 -10 11.68 -10 11 C-9.01 10.67 -8.02 10.34 -7 10 C-6.26676204 7.98491642 -6.26676204 7.98491642 -6 6 C-5.01 6 -4.02 6 -3 6 C-3.33 4.35 -3.66 2.7 -4 1 C-2 0 -2 0 0 0 Z " fill="#2390E0" transform="translate(178,71)"/>
<path d="M0 0 C0.74056641 0.00902344 1.48113281 0.01804688 2.24414062 0.02734375 C4.05873467 0.05075787 5.87316071 0.08662385 7.6875 0.125 C7.6875 0.785 7.6875 1.445 7.6875 2.125 C8.3475 2.455 9.0075 2.785 9.6875 3.125 C8.11162109 3.09019531 8.11162109 3.09019531 6.50390625 3.0546875 C-1.08111242 2.93910626 -7.95381889 3.02251968 -15.3125 5.125 C-11.50706505 -0.58315242 -6.38215752 -0.14828963 0 0 Z " fill="#2992DE" transform="translate(220.3125,46.875)"/>
<path d="M0 0 C2.5 1.375 2.5 1.375 5 3 C5 3.66 5 4.32 5 5 C5.66 5 6.32 5 7 5 C7.25 12.625 7.25 12.625 5 16 C3.02 15.34 1.04 14.68 -1 14 C-0.319375 13.484375 0.36125 12.96875 1.0625 12.4375 C3.40022212 10.03727057 3.40022212 10.03727057 2.875 6.3125 C2.441875 4.6728125 2.441875 4.6728125 2 3 C1.34 2.67 0.68 2.34 0 2 C0 1.34 0 0.68 0 0 Z " fill="#80C0EE" transform="translate(67,75)"/>
<path d="M0 0 C3.1875 1.9375 3.1875 1.9375 6 4 C3.09472388 6.90527612 -0.21099025 6.71264319 -4.125 7.125 C-4.87910156 7.21136719 -5.63320312 7.29773437 -6.41015625 7.38671875 C-8.27257127 7.59889261 -10.13618931 7.80045763 -12 8 C-11 6 -11 6 -9.15234375 5.3671875 C-8.42144531 5.20476563 -7.69054687 5.04234375 -6.9375 4.875 C-6.20402344 4.70742188 -5.47054687 4.53984375 -4.71484375 4.3671875 C-4.14894531 4.24601562 -3.58304688 4.12484375 -3 4 C-3 3.01 -3 2.02 -3 1 C-2.01 0.67 -1.02 0.34 0 0 Z " fill="#79BBEA" transform="translate(119,32)"/>
<path d="M0 0 C0 3 0 3 -1.49609375 4.68359375 C-2.78763532 5.85039891 -4.07930147 7.01706617 -5.37109375 8.18359375 C-7.14984955 9.88143483 -7.14984955 9.88143483 -7.53515625 12.16015625 C-7.76525391 13.07087891 -7.76525391 13.07087891 -8 14 C-8.99 14.33 -9.98 14.66 -11 15 C-12.69882448 17.49759982 -12.69882448 17.49759982 -14 20 C-15.32 19.67 -16.64 19.34 -18 19 C-17.25556641 18.27296875 -17.25556641 18.27296875 -16.49609375 17.53125 C-12.32663238 13.41717047 -8.3469873 9.21630579 -4.54296875 4.76171875 C-3.08919634 3.10184189 -1.57858414 1.54066019 0 0 Z " fill="#2C93E4" transform="translate(142,70)"/>
<path d="M0 0 C2.4375 1.375 2.4375 1.375 3.8125 3.8125 C4.4375 6.375 4.4375 6.375 3.4375 9.375 C2.7775 7.065 2.1175 4.755 1.4375 2.375 C0.4475 2.705 -0.5425 3.035 -1.5625 3.375 C-1.2325 3.705 -0.9025 4.035 -0.5625 4.375 C-0.52157063 6.70797433 -0.52008277 9.04205225 -0.5625 11.375 C-1.2225 11.375 -1.8825 11.375 -2.5625 11.375 C-2.5625 9.065 -2.5625 6.755 -2.5625 4.375 C-3.5525 4.705 -4.5425 5.035 -5.5625 5.375 C-5.5625 3.725 -5.5625 2.075 -5.5625 0.375 C-2.5625 -0.625 -2.5625 -0.625 0 0 Z " fill="#2088D7" transform="translate(223.5625,76.625)"/>
<path d="M0 0 C2.17419795 0.20163933 4.34097513 0.4862995 6.5 0.8125 C8.27890625 1.06966797 8.27890625 1.06966797 10.09375 1.33203125 C11.0528125 1.55246094 12.011875 1.77289063 13 2 C13.33 2.66 13.66 3.32 14 4 C11.04142591 4.05379226 8.08382279 4.09357093 5.125 4.125 C3.86236328 4.15013672 3.86236328 4.15013672 2.57421875 4.17578125 C1.76855469 4.18222656 0.96289062 4.18867187 0.1328125 4.1953125 C-0.61081543 4.20578613 -1.35444336 4.21625977 -2.12060547 4.22705078 C-4 4 -4 4 -6 2 C-4.7934375 1.7834375 -4.7934375 1.7834375 -3.5625 1.5625 C-1.07896294 1.25864751 -1.07896294 1.25864751 0 0 Z " fill="#1A92E7" transform="translate(245,52)"/>
<path d="M0 0 C1.65 0 3.3 0 5 0 C4.8864371 1.64666203 4.75882619 3.29236082 4.625 4.9375 C4.55539063 5.85402344 4.48578125 6.77054687 4.4140625 7.71484375 C4.27742187 8.46894531 4.14078125 9.22304687 4 10 C3.01 10.495 3.01 10.495 2 11 C2 10.34 2 9.68 2 9 C1.34 9 0.68 9 0 9 C0 6.03 0 3.06 0 0 Z " fill="#1197F3" transform="translate(213,77)"/>
<path d="M0 0 C0 3.41099168 -0.49145406 6.63088314 -1 10 C-1.99 9.67 -2.98 9.34 -4 9 C-4 8.34 -4 7.68 -4 7 C-5.98 7.99 -5.98 7.99 -8 9 C-8 7.68 -8 6.36 -8 5 C-7.34 5 -6.68 5 -6 5 C-5.67 3.68 -5.34 2.36 -5 1 C-3.35 0.67 -1.7 0.34 0 0 Z M-2 4 C-3.98 4.99 -3.98 4.99 -6 6 C-4.35 6 -2.7 6 -1 6 C-1.33 5.34 -1.66 4.68 -2 4 Z " fill="#2290E8" transform="translate(272,90)"/>
<path d="M0 0 C1.875 0.25 1.875 0.25 4 1 C5.25 3.0625 5.25 3.0625 6 5 C4.02 4.01 2.04 3.02 0 2 C-0.268125 2.78375 -0.53625 3.5675 -0.8125 4.375 C-2 7 -2 7 -5 9 C-6.19232613 11.05003955 -6.19232613 11.05003955 -7 13 C-8.32 12.67 -9.64 12.34 -11 12 C-10.45730469 11.46890625 -9.91460937 10.9378125 -9.35546875 10.390625 C-8.64003906 9.68421875 -7.92460937 8.9778125 -7.1875 8.25 C-6.47980469 7.55390625 -5.77210938 6.8578125 -5.04296875 6.140625 C-3.17724121 4.18571355 -1.56830358 2.19661447 0 0 Z " fill="#6FB5E6" transform="translate(170,86)"/>
<path d="M0 0 C2.01822917 0.06510417 4.03645833 0.13020833 6.0546875 0.1953125 C6.0546875 1.5153125 6.0546875 2.8353125 6.0546875 4.1953125 C4.0746875 4.1953125 2.0946875 4.1953125 0.0546875 4.1953125 C0.0546875 3.5353125 0.0546875 2.8753125 0.0546875 2.1953125 C-0.6053125 2.1953125 -1.2653125 2.1953125 -1.9453125 2.1953125 C-1.6153125 4.5053125 -1.2853125 6.8153125 -0.9453125 9.1953125 C-1.9353125 8.8653125 -2.9253125 8.5353125 -3.9453125 8.1953125 C-4.0703125 5.3203125 -4.0703125 5.3203125 -3.9453125 2.1953125 C-1.9453125 0.1953125 -1.9453125 0.1953125 0 0 Z " fill="#268BD7" transform="translate(232.9453125,76.8046875)"/>
<path d="M0 0 C0.99 0.33 1.98 0.66 3 1 C3 2.65 3 4.3 3 6 C2.34 6 1.68 6 1 6 C-0.35278115 7.98689731 -1.68568305 9.98745218 -3 12 C-3.99 12.495 -3.99 12.495 -5 13 C-5.144375 12.38125 -5.28875 11.7625 -5.4375 11.125 C-5.93152225 8.96741678 -5.93152225 8.96741678 -7 7 C-6.1028125 6.938125 -6.1028125 6.938125 -5.1875 6.875 C-2.64899168 6.12260099 -2.64899168 6.12260099 -1.25 2.9375 C-0.8375 1.968125 -0.425 0.99875 0 0 Z " fill="#1D8CE0" transform="translate(159,67)"/>
<path d="M0 0 C2 2 2 2 2.1953125 4.1640625 C2.17210937 4.97617188 2.14890625 5.78828125 2.125 6.625 C2.10695312 7.44226563 2.08890625 8.25953125 2.0703125 9.1015625 C2.03550781 10.04128906 2.03550781 10.04128906 2 11 C1.01 11.495 1.01 11.495 0 12 C-0.99 11.34 -1.98 10.68 -3 10 C-2.39009109 6.44219804 -1.4216319 3.3171411 0 0 Z " fill="#6FC4FD" transform="translate(164,108)"/>
<path d="M0 0 C0.45375 0.495 0.9075 0.99 1.375 1.5 C2.87635519 3.22609337 2.87635519 3.22609337 5 3 C5 7.29 5 11.58 5 16 C1.75709826 11.1356474 -0.55811184 5.95319301 0 0 Z " fill="#89C5EF" transform="translate(15,95)"/>
<path d="M0 0 C1.10546875 1.765625 1.10546875 1.765625 2 4 C1.42578125 5.859375 1.42578125 5.859375 0.3125 7.75 C-1.89737213 11.73526092 -3.46771132 15.70959171 -5 20 C-5.33 20 -5.66 20 -6 20 C-5.57534294 12.63927766 -3.01651083 6.67862176 0 0 Z " fill="#87C1EA" transform="translate(21,53)"/>
<path d="M0 0 C0.66 0.33 1.32 0.66 2 1 C1.67 1.66 1.34 2.32 1 3 C0.01 3 -0.98 3 -2 3 C-2.66 5.31 -3.32 7.62 -4 10 C-4.66 10 -5.32 10 -6 10 C-6 9.34 -6 8.68 -6 8 C-7.98 8.66 -9.96 9.32 -12 10 C-8.29909479 6.0747975 -4.45040344 3.05419844 0 0 Z " fill="#1E8FE2" transform="translate(186,28)"/>
<path d="M0 0 C1.45792884 -0.05399736 2.91642712 -0.09279177 4.375 -0.125 C5.18710938 -0.14820312 5.99921875 -0.17140625 6.8359375 -0.1953125 C9 0 9 0 11 2 C9.35 3.65 7.7 5.3 6 7 C5.34 6.34 4.68 5.68 4 5 C3.01 5.33 2.02 5.66 1 6 C0.67 4.02 0.34 2.04 0 0 Z " fill="#1F90E5" transform="translate(230,32)"/>
<path d="M0 0 C0.68707555 2.49064888 1 4.37886292 1 7 C-4.625 7.25 -4.625 7.25 -8 5 C-8 4.34 -8 3.68 -8 3 C-7.34 3 -6.68 3 -6 3 C-6 2.34 -6 1.68 -6 1 C-4.02 0.67 -2.04 0.34 0 0 Z M-4 2 C-3 4 -3 4 -3 4 Z " fill="#108AE8" transform="translate(217,31)"/>
<path d="M0 0 C0.60328125 0.19722656 1.2065625 0.39445312 1.828125 0.59765625 C0.51900622 2.1006081 -0.79425892 3.59994936 -2.109375 5.09765625 C-2.84027344 5.93296875 -3.57117188 6.76828125 -4.32421875 7.62890625 C-4.93394531 8.27859375 -5.54367188 8.92828125 -6.171875 9.59765625 C-6.501875 9.59765625 -6.831875 9.59765625 -7.171875 9.59765625 C-7.484375 6.84765625 -7.484375 6.84765625 -7.171875 3.59765625 C-3.28860468 -0.60921993 -3.28860468 -0.60921993 0 0 Z " fill="#1E93EA" transform="translate(154.171875,99.40234375)"/>
<path d="M0 0 C0.33 0 0.66 0 1 0 C1.96737162 5.20215926 1.89062943 9.69610938 1.0625 14.9375 C0.91264648 15.96327148 0.91264648 15.96327148 0.75976562 17.00976562 C0.51529548 18.6744909 0.2589029 20.33745822 0 22 C-3.58965226 16.61552161 -2.21771861 10.56088502 -1 4.4375 C-0.67537487 2.95639782 -0.34522127 1.47643741 0 0 Z " fill="#2299E8" transform="translate(285,77)"/>
<path d="M0 0 C2.38564077 0.57584432 4.66682784 1.22227595 7 2 C8.66362417 2.34820041 10.32995171 2.68404492 12 3 C9.47211993 5.79872437 7.79588866 7.45773019 4 8 C4 7.34 4 6.68 4 6 C2.68 5.34 1.36 4.68 0 4 C0 2.68 0 1.36 0 0 Z M2 1 C2 4 2 4 2 4 Z " fill="#2B9DEC" transform="translate(199,126)"/>
<path d="M0 0 C0.99 0.33 1.98 0.66 3 1 C2.67 5.62 2.34 10.24 2 15 C3.32 15.33 4.64 15.66 6 16 C4.625 17.5 4.625 17.5 3 19 C2.34 19 1.68 19 1 19 C0.67 12.73 0.34 6.46 0 0 Z " fill="#1790EB" transform="translate(130,105)"/>
<path d="M0 0 C0.33 0.66 0.66 1.32 1 2 C5.8788696 4.07351958 10.77411334 4.5587029 16 5 C15.67 5.99 15.34 6.98 15 8 C14.35933594 7.86722656 13.71867188 7.73445313 13.05859375 7.59765625 C8.05016007 6.57506994 3.06888206 5.66115853 -2 5 C-1.125 1.125 -1.125 1.125 0 0 Z " fill="#258AD2" transform="translate(172,38)"/>
<path d="M0 0 C1.98 0 3.96 0 6 0 C6 2.64 6 5.28 6 8 C5.01 7.67 4.02 7.34 3 7 C2.67 6.01 2.34 5.02 2 4 C1.01 5.32 0.02 6.64 -1 8 C-1.93065133 5.39417629 -2.14917407 4.35801776 -1.0625 1.75 C-0.711875 1.1725 -0.36125 0.595 0 0 Z " fill="#7ABBED" transform="translate(74,128)"/>
<path d="M0 0 C1.34191406 0.52400391 1.34191406 0.52400391 2.7109375 1.05859375 C9.80028045 3.72654478 16.35436914 5.80621673 24 6 C24 6.33 24 6.66 24 7 C8.31801444 7.52761821 8.31801444 7.52761821 1.4375 3.5 C0 2 0 2 0 0 Z " fill="#2B90DD" transform="translate(201,113)"/>
<path d="M0 0 C2.3125 -0.25 2.3125 -0.25 5 0 C6.8125 2 6.8125 2 8 4 C3.25 7 3.25 7 1 7 C0.67 4.69 0.34 2.38 0 0 Z M1 1 C2 3 2 3 2 3 Z " fill="#1E90EA" transform="translate(142,84)"/>
<path d="M0 0 C3.375 0.25 3.375 0.25 7 1 C8.4375 3.0625 8.4375 3.0625 9 5 C8.01 5.99 7.02 6.98 6 8 C5.67 7.01 5.34 6.02 5 5 C4.34 5 3.68 5 3 5 C3 5.66 3 6.32 3 7 C2.34 7 1.68 7 1 7 C-0.0625 4.625 -0.0625 4.625 -1 2 C-0.67 1.34 -0.34 0.68 0 0 Z " fill="#259FF6" transform="translate(188,121)"/>
<path d="M0 0 C2.33294775 -0.04241723 4.66702567 -0.04092937 7 0 C8 1 8 1 8.11352539 2.94946289 C8.10828857 3.7821167 8.10305176 4.61477051 8.09765625 5.47265625 C8.09443359 6.37177734 8.09121094 7.27089844 8.08789062 8.19726562 C8.07951172 9.14279297 8.07113281 10.08832031 8.0625 11.0625 C8.05798828 12.01189453 8.05347656 12.96128906 8.04882812 13.93945312 C8.0370011 16.29303065 8.02052025 18.64648477 8 21 C7.67 21 7.34 21 7 21 C6.67 15.39 6.34 9.78 6 4 C4.02 3.01 2.04 2.02 0 1 C0 0.67 0 0.34 0 0 Z " fill="#78B9E6" transform="translate(120,107)"/>
<path d="M0 0 C-0.33 1.65 -0.66 3.3 -1 5 C-1.66 5 -2.32 5 -3 5 C-3.33 5.66 -3.66 6.32 -4 7 C-5.32 7 -6.64 7 -8 7 C-8 5.35 -8 3.7 -8 2 C-4.91190305 0.23537317 -3.76687864 0 0 0 Z " fill="#6EA9D9" transform="translate(77,32)"/>
<path d="M0 0 C0.66 0.33 1.32 0.66 2 1 C1.113125 1.53625 0.22625 2.0725 -0.6875 2.625 C-3.1565906 4.24771203 -4.91449068 5.93780617 -6.75 8.25 C-7.4925 9.1575 -8.235 10.065 -9 11 C-9.66 11 -10.32 11 -11 11 C-11.33 11.99 -11.66 12.98 -12 14 C-12.3046875 11.765625 -12.3046875 11.765625 -12 9 C-9.8828125 6.796875 -9.8828125 6.796875 -7.125 4.75 C-6.22007813 4.06421875 -5.31515625 3.3784375 -4.3828125 2.671875 C-2 1 -2 1 0 0 Z " fill="#86BCE2" transform="translate(46,28)"/>
<path d="M0 0 C1.12864571 2.82503443 0.99492545 4.01633704 0.07421875 6.98046875 C-0.38339844 8.03878906 -0.84101563 9.09710938 -1.3125 10.1875 C-1.76238281 11.25355469 -2.21226562 12.31960937 -2.67578125 13.41796875 C-4 16 -4 16 -6 17 C-6.33 15.68 -6.66 14.36 -7 13 C-6.01 13 -5.02 13 -4 13 C-3.87625 12.29875 -3.7525 11.5975 -3.625 10.875 C-2.80309501 7.09423704 -1.73352329 3.46704658 0 0 Z " fill="#278DDD" transform="translate(283,99)"/>
<path d="M0 0 C1.65 0.33 3.3 0.66 5 1 C5 2.65 5 4.3 5 6 C2.36 6 -0.28 6 -3 6 C-3 5.34 -3 4.68 -3 4 C-2.01 4 -1.02 4 0 4 C0 2.68 0 1.36 0 0 Z " fill="#6FBEF1" transform="translate(87,80)"/>
<path d="M0 0 C4.61513112 1.31860889 8.09897612 3.21355437 12 6 C11.01 6.495 11.01 6.495 10 7 C9.34 6.67 8.68 6.34 8 6 C7.01 7.485 7.01 7.485 6 9 C4.68 8.67 3.36 8.34 2 8 C2.99 6.35 3.98 4.7 5 3 C2.525 2.01 2.525 2.01 0 1 C0 0.67 0 0.34 0 0 Z " fill="#85BFEC" transform="translate(106,25)"/>
<path d="M0 0 C0.9796875 0.00322266 1.959375 0.00644531 2.96875 0.00976562 C3.98453125 0.01814453 5.0003125 0.02652344 6.046875 0.03515625 C7.59375 0.04192383 7.59375 0.04192383 9.171875 0.04882812 C11.71360073 0.06059537 14.25520819 0.07703614 16.796875 0.09765625 C13.15907461 2.52285651 10.5455676 2.2926053 6.359375 2.16015625 C2.25575678 2.06789504 -1.2493523 2.04208227 -5.203125 3.09765625 C-7.453125 2.16015625 -7.453125 2.16015625 -9.203125 1.09765625 C-6.06462436 0.17211882 -3.26631722 -0.01899022 0 0 Z " fill="#1990E6" transform="translate(211.203125,19.90234375)"/>
<path d="M0 0 C0.99 0.33 1.98 0.66 3 1 C3 1.99 3 2.98 3 4 C4.65 4 6.3 4 8 4 C8 3.34 8 2.68 8 2 C8.99 2.33 9.98 2.66 11 3 C9.02 4.65 7.04 6.3 5 8 C3.02 5.69 1.04 3.38 -1 1 C-0.67 0.67 -0.34 0.34 0 0 Z " fill="#77B9E8" transform="translate(123,74)"/>
<path d="M0 0 C-1.6209213 1.17232685 -3.24686833 2.3377077 -4.875 3.5 C-5.77992187 4.1496875 -6.68484375 4.799375 -7.6171875 5.46875 C-10 7 -10 7 -12 7 C-12 6.34 -12 5.68 -12 5 C-11.01 5 -10.02 5 -9 5 C-8.95875 4.38125 -8.9175 3.7625 -8.875 3.125 C-8 1 -8 1 -5.0625 -0.3125 C-2 -1 -2 -1 0 0 Z " fill="#82C0ED" transform="translate(124,132)"/>
<path d="M0 0 C3.26460973 1.80412643 4.88929795 2.83394693 7 6 C6.360625 6.12375 5.72125 6.2475 5.0625 6.375 C4.0415625 6.684375 4.0415625 6.684375 3 7 C2.67 7.66 2.34 8.32 2 9 C0.68 8.34 -0.64 7.68 -2 7 C-2 6.34 -2 5.68 -2 5 C-1.01 4.67 -0.02 4.34 1 4 C0.67 2.68 0.34 1.36 0 0 Z " fill="#1690EB" transform="translate(188,103)"/>
<path d="M0 0 C1.65 0 3.3 0 5 0 C6 3 6 3 5 6 C3.68 6 2.36 6 1 6 C0.67 4.02 0.34 2.04 0 0 Z " fill="#2191E8" transform="translate(266,76)"/>
<path d="M0 0 C1.32 0 2.64 0 4 0 C4 0.66 4 1.32 4 2 C4.66 2 5.32 2 6 2 C6 2.66 6 3.32 6 4 C7.4540625 4.4021875 7.4540625 4.4021875 8.9375 4.8125 C9.948125 5.204375 10.95875 5.59625 12 6 C12.33 6.99 12.66 7.98 13 9 C7.97290493 7.42903279 3.97133531 4.38006951 0 1 C0 0.67 0 0.34 0 0 Z " fill="#218DDC" transform="translate(176,131)"/>
<path d="M0 0 C1.32 0 2.64 0 4 0 C4.33 0.99 4.66 1.98 5 3 C5.99 3 6.98 3 8 3 C7.67 3.99 7.34 4.98 7 6 C5.35 5.67 3.7 5.34 2 5 C2 4.34 2 3.68 2 3 C1.34 3 0.68 3 0 3 C0 2.01 0 1.02 0 0 Z " fill="#66BEF0" transform="translate(80,128)"/>
<path d="M0 0 C-1 2 -1 2 -3 5 C-4.32 4.01 -5.64 3.02 -7 2 C-6.01 2 -5.02 2 -4 2 C-4 1.34 -4 0.68 -4 0 C-6.31 0.33 -8.62 0.66 -11 1 C-10 -1 -10 -1 -8.3125 -1.75 C-5.17326781 -2.08937645 -2.91097894 -1.12469641 0 0 Z " fill="#208FE2" transform="translate(207,73)"/>
<path d="M0 0 C0.33 0 0.66 0 1 0 C1 4.29 1 8.58 1 13 C2.65 12.67 4.3 12.34 6 12 C5.01 13.32 4.02 14.64 3 16 C2.01 15.67 1.02 15.34 0 15 C0 10.05 0 5.1 0 0 Z " fill="#3C8CC8" transform="translate(187,48)"/>
<path d="M0 0 C0.66 0 1.32 0 2 0 C1.67 1.65 1.34 3.3 1 5 C-0.75 5.6875 -0.75 5.6875 -3 6 C-5.25 4.5625 -5.25 4.5625 -7 3 C-6.21625 3.061875 -5.4325 3.12375 -4.625 3.1875 C-3.75875 3.125625 -2.8925 3.06375 -2 3 C-1.34 2.01 -0.68 1.02 0 0 Z " fill="#1A91EC" transform="translate(196,137)"/>
<path d="M0 0 C1.32 0.66 2.64 1.32 4 2 C4 6 4 6 3 8 C1.68 7.67 0.36 7.34 -1 7 C-0.67 6.01 -0.34 5.02 0 4 C0.66 4 1.32 4 2 4 C2 3.34 2 2.68 2 2 C1.34 2 0.68 2 0 2 C0 1.34 0 0.68 0 0 Z " fill="#1D8DE1" transform="translate(266,82)"/>
<path d="M0 0 C1.4606285 2.64738916 2 3.89448334 2 7 C1.34 7 0.68 7 0 7 C0 7.66 0 8.32 0 9 C-0.66 9 -1.32 9 -2 9 C-2.25 3.375 -2.25 3.375 0 0 Z " fill="#79C5FB" transform="translate(81,79)"/>
<path d="M0 0 C-0.62759865 2.92879371 -1.58622659 5.36095629 -3 8 C-4.20628008 5.66785852 -5.1654738 3.50357861 -6 1 C-3.92446352 0.4465236 -2.15634036 0 0 0 Z " fill="#5EC2F3" transform="translate(32,91)"/>
<path d="M0 0 C0.6875 2.3125 0.6875 2.3125 1 5 C-0.4375 6.8125 -0.4375 6.8125 -2 8 C-2.66 7.67 -3.32 7.34 -4 7 C-3.67 6.34 -3.34 5.68 -3 5 C-3.66 4.67 -4.32 4.34 -5 4 C-4.67 3.01 -4.34 2.02 -4 1 C-2 0 -2 0 0 0 Z M-2 1 C-1 3 -1 3 -1 3 Z " fill="#6FB4E6" transform="translate(131,56)"/>
<path d="M0 0 C0.66 0 1.32 0 2 0 C2.69685498 1.6210103 3.38222861 3.24696066 4.0625 4.875 C4.63677734 6.23238281 4.63677734 6.23238281 5.22265625 7.6171875 C6 10 6 10 5 12 C4.34 11.67 3.68 11.34 3 11 C2.66666667 9.66666667 2.33333333 8.33333333 2 7 C1.34 6.67 0.68 6.34 0 6 C0 4.02 0 2.04 0 0 Z " fill="#86BBE0" transform="translate(43,91)"/>
<path d="M0 0 C1.98 1.65 3.96 3.3 6 5 C5.67 5.66 5.34 6.32 5 7 C2.03 7 -0.94 7 -4 7 C-1 5 -1 5 1.1875 5.375 C1.785625 5.58125 2.38375 5.7875 3 6 C2.2575 5.071875 2.2575 5.071875 1.5 4.125 C0 2 0 2 0 0 Z " fill="#74ADD4" transform="translate(179,94)"/>
<path d="M0 0 C0.33 0.99 0.66 1.98 1 3 C1.66 3 2.32 3 3 3 C4.125 7.75 4.125 7.75 3 10 C2.01 9.67 1.02 9.34 0 9 C-0.87890625 2.84765625 -0.87890625 2.84765625 -1 1 C-0.67 0.67 -0.34 0.34 0 0 Z " fill="#6FBBF3" transform="translate(25,92)"/>
<path d="M0 0 C0 0.66 0 1.32 0 2 C0.66 2.33 1.32 2.66 2 3 C0.625 4.5 0.625 4.5 -1 6 C-1.66 6 -2.32 6 -3 6 C-3.33 4.35 -3.66 2.7 -4 1 C-2 0 -2 0 0 0 Z " fill="#1692EA" transform="translate(178,71)"/>
<path d="M0 0 C0.66 0.33 1.32 0.66 2 1 C1.67 5.29 1.34 9.58 1 14 C0.67 14 0.34 14 0 14 C0 10.37 0 6.74 0 3 C-0.99 2.67 -1.98 2.34 -3 2 C-2.01 1.34 -1.02 0.68 0 0 Z " fill="#328CCF" transform="translate(242,111)"/>
<path d="M0 0 C1.32 0.33 2.64 0.66 4 1 C4.33 2.98 4.66 4.96 5 7 C3.68 6.67 2.36 6.34 1 6 C0.67 4.02 0.34 2.04 0 0 Z " fill="#6EB0E2" transform="translate(64,33)"/>
<path d="M0 0 C2.97 0.495 2.97 0.495 6 1 C5.25 2.9375 5.25 2.9375 4 5 C1.875 5.75 1.875 5.75 0 6 C0.33 5.34 0.66 4.68 1 4 C1.66 4 2.32 4 3 4 C3 3.34 3 2.68 3 2 C2.01 2 1.02 2 0 2 C0 1.34 0 0.68 0 0 Z " fill="#2B8CD4" transform="translate(254,133)"/>
<path d="M0 0 C0.66 0.33 1.32 0.66 2 1 C0.515 3.475 0.515 3.475 -1 6 C-2.32 5.67 -3.64 5.34 -5 5 C-3.35 3.35 -1.7 1.7 0 0 Z " fill="#1F8FE2" transform="translate(129,84)"/>
<path d="M0 0 C0.99 0.33 1.98 0.66 3 1 C2.67 2.98 2.34 4.96 2 7 C0.4375 5.75 0.4375 5.75 -1 4 C-0.6875 1.8125 -0.6875 1.8125 0 0 Z " fill="#7AC4F8" transform="translate(95,78)"/>
<path d="M0 0 C0.33 0.66 0.66 1.32 1 2 C1.99 2 2.98 2 4 2 C4 4 4 4 2.125 6.125 C0 8 0 8 -2 8 C-2 7.34 -2 6.68 -2 6 C-1.34 6 -0.68 6 0 6 C0 4.02 0 2.04 0 0 Z " fill="#1594EF" transform="translate(253,133)"/>
<path d="M0 0 C-1.32 0.33 -2.64 0.66 -4 1 C-4 2.32 -4 3.64 -4 5 C-5.32 4.34 -6.64 3.68 -8 3 C-8 2.34 -8 1.68 -8 1 C-5.07175348 0.02391783 -3.04386724 -0.08226668 0 0 Z " fill="#82C1ED" transform="translate(52,131)"/>
<path d="M0 0 C3.63 0.66 7.26 1.32 11 2 C11 2.33 11 2.66 11 3 C9.54257537 3.08096803 8.08387193 3.13917774 6.625 3.1875 C5.81289062 3.22230469 5.00078125 3.25710937 4.1640625 3.29296875 C3.44992188 3.19628906 2.73578125 3.09960938 2 3 C1.34 2.01 0.68 1.02 0 0 Z " fill="#228FDD" transform="translate(242,130)"/>
<path d="M0 0 C2.31 0.66 4.62 1.32 7 2 C6.67 2.99 6.34 3.98 6 5 C5.34 4.67 4.68 4.34 4 4 C4 3.34 4 2.68 4 2 C2.02 2.99 2.02 2.99 0 4 C0 2.68 0 1.36 0 0 Z " fill="#259EF7" transform="translate(264,95)"/>
<path d="M0 0 C2.31 0 4.62 0 7 0 C7 1.32 7 2.64 7 4 C3.73045798 3.43628586 2.17424117 2.50037734 0 0 Z " fill="#74B2E0" transform="translate(84,88)"/>
<path d="M0 0 C2.29013653 3.4352048 2.17842973 4.985331 2 9 C1.01 9.495 1.01 9.495 0 10 C-0.74926071 6.33694766 -1.2380014 3.57644848 0 0 Z " fill="#1B90E8" transform="translate(225,81)"/>
<path d="M0 0 C4.95 0.99 4.95 0.99 10 2 C10 2.33 10 2.66 10 3 C7.03 3 4.06 3 1 3 C0.67 2.01 0.34 1.02 0 0 Z " fill="#84BEE6" transform="translate(36,54)"/>
<path d="M0 0 C1.65 0 3.3 0 5 0 C5.66 1.32 6.32 2.64 7 4 C5.68 4.33 4.36 4.66 3 5 C1 2 1 2 0 0 Z " fill="#138CE6" transform="translate(219,30)"/>
<path d="M0 0 C0.33 0 0.66 0 1 0 C1 2.64 1 5.28 1 8 C0.01 8.495 0.01 8.495 -1 9 C-1.99 8.01 -2.98 7.02 -4 6 C-3.01 5.67 -2.02 5.34 -1 5 C-0.67 3.35 -0.34 1.7 0 0 Z " fill="#60ACE5" transform="translate(165,111)"/>
<path d="M0 0 C1.32 0 2.64 0 4 0 C4.33 0.99 4.66 1.98 5 3 C3.02 3.33 1.04 3.66 -1 4 C-0.67 2.68 -0.34 1.36 0 0 Z " fill="#1890E9" transform="translate(253,97)"/>
<path d="M0 0 C1.98 0 3.96 0 6 0 C5.34 2.31 4.68 4.62 4 7 C3.67 7 3.34 7 3 7 C2.67 5.35 2.34 3.7 2 2 C1.34 2 0.68 2 0 2 C0 1.34 0 0.68 0 0 Z " fill="#77B0D7" transform="translate(102,77)"/>
<path d="M0 0 C2 3 2 3 1.75 5.625 C1.5025 6.40875 1.255 7.1925 1 8 C0.01 8.495 0.01 8.495 -1 9 C-2.25541557 5.23375329 -1.37061958 3.62811066 0 0 Z " fill="#0F85E9" transform="translate(148,76)"/>
<path d="M0 0 C0.99 0 1.98 0 3 0 C3.33 2.31 3.66 4.62 4 7 C3.01 6.67 2.02 6.34 1 6 C1.33 4.68 1.66 3.36 2 2 C1.34 2 0.68 2 0 2 C0 1.34 0 0.68 0 0 Z " fill="#1693F0" transform="translate(241,23)"/>
</svg>
